<?xml version="1.0" encoding="UTF-8"?>
<svg height="128px" viewBox="0 0 128 128" width="128px" xmlns="http://www.w3.org/2000/svg" xmlns:xlink="http://www.w3.org/1999/xlink">
    <linearGradient id="a" gradientUnits="userSpaceOnUse" x1="19.999733" x2="107.999733" y1="65.999893" y2="65.999893">
        <stop offset="0" stop-color="#f35816"/>
        <stop offset="0.0454546" stop-color="#f6a17e"/>
        <stop offset="0.0909091" stop-color="#f68458"/>
        <stop offset="0.909091" stop-color="#f68458"/>
        <stop offset="0.954545" stop-color="#f6a17e"/>
        <stop offset="1" stop-color="#f35816"/>
    </linearGradient>
    <path d="m 28 62 c -4.433594 0 -8 3.566406 -8 8 v 42 c 0 4.433594 3.566406 8 8 8 h 72 c 4.433594 0 8 -3.566406 8 -8 v -42 c 0 -4.433594 -3.566406 -8 -8 -8 z m 0 0" fill="url(#a)"/>
    <path d="m 28 8 h 72 c 4.417969 0 8 3.582031 8 8 v 92 c 0 4.417969 -3.582031 8 -8 8 h -72 c -4.417969 0 -8 -3.582031 -8 -8 v -92 c 0 -4.417969 3.582031 -8 8 -8 z m 0 0" fill="#f35816"/>
    <path d="m 28 14 h 72 c 2.207031 0 4 1.789062 4 4 v 90 c 0 2.210938 -1.792969 4 -4 4 h -72 c -2.210938 0 -4 -1.789062 -4 -4 v -90 c 0 -2.210938 1.789062 -4 4 -4 z m 0 0" fill="#a9a9a9"/>
    <path d="m 28 12 h 72 c 2.207031 0 4 1.789062 4 4 v 90 c 0 2.210938 -1.792969 4 -4 4 h -72 c -2.210938 0 -4 -1.789062 -4 -4 v -90 c 0 -2.210938 1.789062 -4 4 -4 z m 0 0" fill="#dedede"/>
    <path d="m 24 44 h 80 v 2 h -80 z m 0 0" fill="#919191"/>
    <path d="m 24 76 h 80 v 2 h -80 z m 0 0" fill="#919191"/>
    <path d="m 65 14 v 98 h -2 v -98 z m 0 0" fill="#4f4f4f"/>
    <path d="m 65 12 v 98 h -2 v -98 z m 0 0" fill="#919191"/>
    <path d="m 36 12 c 0 4.417969 3.582031 8 8 8 s 8 -3.582031 8 -8 z m 0 0" fill="#8f3008"/>
    <path d="m 36 46 c 0 4.417969 3.582031 8 8 8 s 8 -3.582031 8 -8 z m 0 0" fill="#3b3b3b"/>
    <path d="m 36 78 c 0 4.417969 3.582031 8 8 8 s 8 -3.582031 8 -8 z m 0 0" fill="#3b3b3b"/>
    <path d="m 76 12 c 0 4.417969 3.582031 8 8 8 s 8 -3.582031 8 -8 z m 0 0" fill="#8f3008"/>
    <path d="m 76 46 c 0 4.417969 3.582031 8 8 8 s 8 -3.582031 8 -8 z m 0 0" fill="#3b3b3b"/>
    <path d="m 76 78 c 0 4.417969 3.582031 8 8 8 s 8 -3.582031 8 -8 z m 0 0" fill="#3b3b3b"/>
    <g fill="#ababab">
        <path d="m 35 24 h 18 c 1.65625 0 3 1.34375 3 3 v 6 c 0 1.65625 -1.34375 3 -3 3 h -18 c -1.65625 0 -3 -1.34375 -3 -3 v -6 c 0 -1.65625 1.34375 -3 3 -3 z m 0 0"/>
        <path d="m 35 58 h 18 c 1.65625 0 3 1.34375 3 3 v 6 c 0 1.65625 -1.34375 3 -3 3 h -18 c -1.65625 0 -3 -1.34375 -3 -3 v -6 c 0 -1.65625 1.34375 -3 3 -3 z m 0 0"/>
        <path d="m 35 90 h 18 c 1.65625 0 3 1.34375 3 3 v 6 c 0 1.65625 -1.34375 3 -3 3 h -18 c -1.65625 0 -3 -1.34375 -3 -3 v -6 c 0 -1.65625 1.34375 -3 3 -3 z m 0 0"/>
        <path d="m 75 24 h 18 c 1.65625 0 3 1.34375 3 3 v 6 c 0 1.65625 -1.34375 3 -3 3 h -18 c -1.65625 0 -3 -1.34375 -3 -3 v -6 c 0 -1.65625 1.34375 -3 3 -3 z m 0 0"/>
        <path d="m 75 58 h 18 c 1.65625 0 3 1.34375 3 3 v 6 c 0 1.65625 -1.34375 3 -3 3 h -18 c -1.65625 0 -3 -1.34375 -3 -3 v -6 c 0 -1.65625 1.34375 -3 3 -3 z m 0 0"/>
        <path d="m 75 90 h 18 c 1.65625 0 3 1.34375 3 3 v 6 c 0 1.65625 -1.34375 3 -3 3 h -18 c -1.65625 0 -3 -1.34375 -3 -3 v -6 c 0 -1.65625 1.34375 -3 3 -3 z m 0 0"/>
    </g>
</svg>
